<svg width="15" height="8" viewBox="0 0 15 8" fill="none" xmlns="http://www.w3.org/2000/svg">
<path fill-rule="evenodd" clip-rule="evenodd" d="M0.0228345 3.59376C0.0218311 3.69958 0.0735444 3.80157 0.166599 3.87729C0.259653 3.95301 0.386426 3.99626 0.519029 3.99751L12.3115 4.10933L9.14084 6.59011C9.094 6.62676 9.05671 6.67046 9.03109 6.71869C9.00547 6.76692 8.99203 6.81875 8.99153 6.87122C8.99103 6.92369 9.00349 6.97576 9.02819 7.02447C9.05289 7.07318 9.08934 7.11757 9.13548 7.15511C9.18161 7.19265 9.23652 7.22261 9.29707 7.24326C9.35761 7.26391 9.42261 7.27486 9.48835 7.27549C9.55409 7.27611 9.61929 7.26639 9.68022 7.24689C9.74114 7.22739 9.79661 7.19848 9.84345 7.16183L13.8735 4.00761C13.9204 3.97099 13.9578 3.92731 13.9835 3.87907C14.0091 3.83083 14.0226 3.77899 14.0231 3.7265C14.0236 3.67402 14.0111 3.62193 13.9864 3.57321C13.9616 3.52449 13.9251 3.48011 13.8789 3.4426L9.90934 0.212542C9.8632 0.175002 9.8083 0.145051 9.74775 0.124397C9.6872 0.103743 9.6222 0.0927924 9.55646 0.0921691C9.49072 0.0915458 9.42553 0.101262 9.3646 0.120764C9.30367 0.140266 9.24821 0.169171 9.20137 0.20583C9.15453 0.242488 9.11724 0.286181 9.09162 0.334415C9.066 0.382648 9.05256 0.434478 9.05206 0.486944C9.05157 0.53941 9.06402 0.591485 9.08872 0.640195C9.11342 0.688906 9.14988 0.733298 9.19601 0.770838L12.3191 3.31129L0.526595 3.19948C0.393993 3.19822 0.266423 3.23906 0.171949 3.313C0.0774758 3.38694 0.0238379 3.48793 0.0228345 3.59376Z" fill="white"/>
</svg>
